<?xml version="1.0" encoding="utf-8"?>
<!-- Generator: Adobe Illustrator 17.1.0, SVG Export Plug-In . SVG Version: 6.00 Build 0)  -->
<!DOCTYPE svg PUBLIC "-//W3C//DTD SVG 1.1//EN" "http://www.w3.org/Graphics/SVG/1.1/DTD/svg11.dtd">
<svg version="1.1" id="Layer_1" xmlns="http://www.w3.org/2000/svg" xmlns:xlink="http://www.w3.org/1999/xlink" x="0px" y="0px"
	 viewBox="491 367 281.1 38.8" enable-background="new 491 367 281.1 38.8" xml:space="preserve">
<g>
	<g>
		<g>
			<path fill="#D3D3D3" d="M649.8,390.9c-0.3,0-0.6-0.3-0.6-0.6c0-0.3,0.3-0.6,0.6-0.6l37.8-0.2c0.3,0,0.6,0.3,0.6,0.6
				c0,0.3-0.3,0.6-0.6,0.6L649.8,390.9L649.8,390.9z"/>
		</g>
	</g>
	<g>
		<path fill="#848484" d="M734.3,387.8c1.3,0.2,6.6,0.2,7.2,0.2h1L742,382l-7.7,0.4c-1.1,0-1.8,0.7-1.8,1.7v1.9
			C732.5,387,733.3,387.8,734.3,387.8z M734.3,384.2c0,0,0.1,0,0.1,0l6-0.3l0.2,2.3c-2.4,0-5.4-0.1-6.1-0.1l-0.1-0.1h-0.1
			L734.3,384.2z"/>
		<path fill="#848484" d="M769.7,386.8c0-4.1-0.3-7.2-0.5-7.2c-0.3,0-0.5,2.9-0.5,6.7l-0.4-0.2c-1-0.6-3.1-0.6-5.5-0.7
			c-1.4,0-2.8-0.1-3.9-0.2c-0.7-0.8-2.4-2.3-5.3-3.3c-1.4-0.5-2.7-0.9-3.4-1.1c-0.4-0.8-1.5-2.3-3.3-2.4l-0.1,0l-0.1,0
			c-0.3,0.1-2.2,0.2-3.9,0.3c-2.6,0.2-5.5,0.3-6.8,0.5c-2.5,0.2-7.4,3.2-8.3,3.7c-1.7,0.7-3.5,1.8-4.2,2.1c-0.6,0-2.3,0-4.5,0
			c-4.4,0-12.3-0.1-16.3-0.8c-1.5-0.3-6.4-5.6-8.2-7.5c-0.5-0.6-1-1-1.2-1.3c-1.4-1.4-2.1-1.7-3.6-1.7h-8.3l0.5,1.2
			c1.5,3.5,4.3,10.2,5.2,12.4l0.2,0.3l-0.2,0.3c-0.2,0.2-0.4,0.4-0.5,0.6c-0.1,0.2-0.1,0.4-0.1,0.6l-0.1,0l0.1,0.1
			c0,0.3,0.2,0.5,0.4,0.8c0.1,0.1,0.3,0.2,0.5,0.3c0,0,0.1,0.1,0.1,0.1l0.1,0.1c3.3,4.1,23.2,5.4,43.3,6.5c3.4,0.2,6.2,0.3,8.1,0.5
			l1.5,0.1v3.9c-0.8,0.3-1.3,1-1.3,1.9c0,1.2,0.9,2.1,2.1,2.1c1.2,0,2.1-0.9,2.1-2.1c0-0.8-0.4-1.5-1.1-1.8V398c0.7,0,1.5,0,2.4,0
			c3.2,0,7.5-0.2,12.9-0.6v2.2c-0.4,0.1-0.7,0.5-0.7,1.1c0,0.7,0.6,1.3,1.3,1.3c0.7,0,1.3-0.6,1.3-1.3c0-0.6-0.5-1-0.9-1.2l0,0v-2.2
			c0.1,0,0.2,0,0.3,0c0.3,0,0.6,0,1-0.1c2.7-0.4,4.3-0.7,5.1-1l0.2-0.1c2-1.7,3-3.8,3.5-5.4l0.1,0c0,3.6,0.3,6.3,0.5,6.3
			c0.3,0,0.5-3.5,0.5-7.9c1.4-0.4,2.4-1.2,2.4-1.2S771.1,387.1,769.7,386.8z M758.4,400.8c0,0.2-0.2,0.5-0.5,0.5
			c-0.2,0-0.5-0.2-0.5-0.5c0-0.2,0.2-0.5,0.5-0.5C758.2,400.3,758.4,400.6,758.4,400.8z M749.5,383c1.3,0.1,2.4,0.3,3.3,0.6
			c1.4,0.6,2.8,1.2,3.7,2l-11.5,0.5l-0.2-2.7L749.5,383z M683.9,375.7h5.7c1,0,1.3,0,2.4,1.2c0.2,0.2,0.6,0.7,1.2,1.2
			c4.4,4.7,7.4,7.7,9.2,8.1c4,0.7,11.3,0.9,16.7,0.9c2.8,0,4.8,0,4.8,0l0.2,0l0.2-0.1c0,0,2.2-1.4,4.1-2.1l0.2-0.1
			c1.5-0.9,5.8-3.4,7.6-3.5c1.3-0.2,4.3-0.4,6.7-0.5c2.3-0.1,3.5-0.2,4-0.3c0.7,0,1.2,0.6,1.5,1l-5.3,0.5l0.4,6.1l16.7-0.8l0,0
			c0.8,0,1.7,0.1,2.6,0.1c1.5,0,3.3,0.1,4.3,0.3l0.1,1.5l-78.7,0.2l0.8-1.3l-0.6-1.1C687.7,384.9,685.4,379.4,683.9,375.7z
			 M741.9,403.7c0,0.5-0.3,0.8-0.8,0.8l0,0h0c-0.5,0-0.8-0.3-0.8-0.8c0-0.5,0.3-0.8,0.8-0.8h0C741.6,402.9,741.9,403.3,741.9,403.7
			C741.9,403.7,741.9,403.7,741.9,403.7z M764,394.7c-0.5,0.2-1.8,0.5-4.6,0.9c-0.4,0-0.6,0.1-0.9,0.1c-8.3,0.6-13.9,0.8-17.6,0.6
			l-0.3,0l-1.7-0.2c-1.9-0.2-4.8-0.3-8.2-0.5c-10.9-0.6-32-1.7-39.5-4.4l75.4-0.2C766.2,392.1,765.4,393.6,764,394.7z"/>
	</g>
	<polygon fill="#4BE288" points="581.1,373.6 581.6,373.6 581.1,373 	"/>
	<path fill="#46C67A" d="M596.1,384l5.1-4.6c0,0,0.1-0.1,0.1-0.2c-1,1.1-2.4,1.8-3.9,1.8h-17.3l-4.7,3.9c0.9-0.6,1.9-1,3.1-1H596.1z
		"/>
	<g>
		<polygon fill="#4BE288" points="566.9,372.5 566.4,373.6 565.8,375 568,375 567.4,373.6 		"/>
		<polygon fill="#4BE288" points="552.4,372.5 551.9,373.6 551.3,375 553.5,375 552.9,373.6 		"/>
		<path fill="#4BE288" d="M524.1,372.2h-1.3v2.2h1.3c0.8,0,1.3-0.5,1.3-1.1v0C525.4,372.6,524.9,372.2,524.1,372.2z"/>
		<path fill="#4BE288" d="M537.8,372.2h-1.6v1.4v0.7h1.6c0.6,0,1-0.3,1.2-0.7c0-0.1,0.1-0.2,0.1-0.4v0
			C539,372.6,538.6,372.2,537.8,372.2z"/>
		<path fill="#4BE288" d="M530.6,372.1c-1,0-1.7,0.6-2,1.5c-0.1,0.2-0.1,0.5-0.1,0.7v0c0,1.2,0.9,2.2,2.1,2.2c1.2,0,2.1-1,2.1-2.2v0
			c0-0.2,0-0.5-0.1-0.7C532.3,372.8,531.5,372.1,530.6,372.1z"/>
		<path fill="#4BE288" d="M597.4,367h-56.7h-44.4c-1.5,0-2.9,0.6-3.8,1.6c-0.9,0.9-1.5,2.2-1.5,3.6v1.4v2.2c0,1.2,0.4,2.2,1,3.1
			c1,1.3,2.5,2.2,4.3,2.2h26.9h7.6h49.3h17.3c1.6,0,3-0.7,3.9-1.8c0.8-0.9,1.4-2.2,1.4-3.5v-3.5C602.7,369.4,600.3,367,597.4,367z
			 M507.9,375.7c0,1.2-0.9,1.8-2.2,1.8c-0.8,0-1.6-0.3-2.3-0.8c-0.1-0.1-0.2-0.2-0.2-0.4c0-0.3,0.2-0.5,0.5-0.5c0.1,0,0.2,0,0.3,0.1
			c0.5,0.4,1.1,0.6,1.7,0.6c0.7,0,1.1-0.3,1.1-0.8v0c0-0.4-0.2-0.7-1.4-0.9c-1.1-0.3-1.8-0.6-2-1.3c0-0.2-0.1-0.3-0.1-0.5v0
			c0-1,0.8-1.7,1.8-1.8c0.1,0,0.2,0,0.3,0c0.8,0,1.4,0.2,2,0.6c0.1,0.1,0.2,0.2,0.2,0.4c0,0.3-0.2,0.5-0.5,0.5c-0.1,0-0.2,0-0.3-0.1
			c-0.5-0.3-0.9-0.5-1.4-0.5c-0.2,0-0.4,0-0.5,0.1c-0.3,0.1-0.5,0.4-0.5,0.6v0c0,0,0,0,0,0c0,0.4,0.3,0.7,1.5,0.9
			C507.2,374.2,507.9,374.6,507.9,375.7L507.9,375.7z M514.3,374.7c0,1.8-1,2.8-2.7,2.8c-1.6,0-2.6-0.9-2.6-2.7v-3.1
			c0-0.3,0.2-0.5,0.5-0.5c0.3,0,0.5,0.2,0.5,0.5v3c0,1.1,0.6,1.8,1.6,1.8c1,0,1.6-0.6,1.6-1.7v-3.1c0-0.3,0.2-0.5,0.5-0.5
			c0.3,0,0.5,0.2,0.5,0.5V374.7z M520.6,373.3c0,1.4-1.1,2.1-2.5,2.1h-1.2v1.5c0,0.3-0.2,0.5-0.5,0.5c-0.3,0-0.5-0.2-0.5-0.5v-5.1
			c0-0.3,0.2-0.5,0.5-0.5h1.9C519.7,371.2,520.6,372.1,520.6,373.3L520.6,373.3z M526.5,373.3c0,1.4-1.1,2.1-2.5,2.1h-1.2v1.5
			c0,0.3-0.2,0.5-0.5,0.5c-0.3,0-0.5-0.2-0.5-0.5v-5.1c0-0.3,0.2-0.5,0.5-0.5h1.9C525.6,371.2,526.5,372.1,526.5,373.3L526.5,373.3z
			 M533.8,374.3c0,1.7-1.3,3.2-3.2,3.2c-1.9,0-3.2-1.4-3.2-3.2v0c0-0.4,0.1-0.8,0.2-1.2c0.5-1.2,1.6-2,3-2c1.6,0,2.9,1.1,3.1,2.5
			C533.8,373.9,533.8,374.1,533.8,374.3L533.8,374.3z M540.1,373.2c0,0.2,0,0.3,0,0.4c-0.1,0.7-0.7,1.2-1.4,1.4l1.2,1.5
			c0.1,0.1,0.2,0.2,0.2,0.4c0,0.3-0.3,0.5-0.5,0.5c-0.2,0-0.4-0.1-0.5-0.3l-1.5-1.9h-1.4v1.7c0,0.3-0.2,0.5-0.5,0.5
			c-0.3,0-0.5-0.2-0.5-0.5v-3.3v-1.9c0-0.3,0.2-0.5,0.5-0.5h2.2c0.8,0,1.4,0.2,1.8,0.6C540,372.2,540.1,372.7,540.1,373.2
			L540.1,373.2z M545.6,372.3h-1.5v1.4v3.3c0,0.3-0.2,0.5-0.5,0.5c-0.3,0-0.5-0.2-0.5-0.5v-3.3v-1.4h-1.5c-0.3,0-0.5-0.2-0.5-0.5
			c0-0.3,0.2-0.5,0.5-0.5h4.1c0.3,0,0.5,0.2,0.5,0.5C546.1,372,545.8,372.3,545.6,372.3z M554.9,377.5c-0.3,0-0.4-0.1-0.5-0.4
			l-0.5-1.2h-3l-0.5,1.2c-0.1,0.2-0.3,0.3-0.5,0.3c-0.3,0-0.5-0.2-0.5-0.5c0-0.1,0-0.2,0.1-0.2l1.4-3.1l0.9-2
			c0.1-0.3,0.3-0.4,0.7-0.4h0.1c0.3,0,0.5,0.2,0.6,0.4l0.9,2l1.4,3.1c0,0.1,0.1,0.2,0.1,0.2C555.4,377.2,555.2,377.5,554.9,377.5z
			 M562.7,373.6v3.3c0,0.3-0.2,0.5-0.5,0.5c-0.3,0-0.5-0.2-0.5-0.5v-3.3v-0.4l-0.3,0.4l-1.2,1.8c-0.1,0.2-0.3,0.3-0.5,0.3
			c-0.2,0-0.3-0.1-0.4-0.3l-1.2-1.8l-0.3-0.4v0.4v3.3c0,0.3-0.2,0.5-0.5,0.5s-0.5-0.2-0.5-0.5v-3.3v-1.9c0-0.3,0.2-0.5,0.5-0.5h0.1
			c0.2,0,0.4,0.1,0.5,0.3l1.4,2.1l0.5,0.8l0.5-0.8l1.4-2.2c0.1-0.2,0.3-0.3,0.5-0.3h0.1c0.3,0,0.5,0.2,0.5,0.5V373.6z M569.4,377.5
			c-0.3,0-0.4-0.1-0.5-0.4l-0.5-1.2h-3l-0.5,1.2c-0.1,0.2-0.3,0.3-0.5,0.3c-0.3,0-0.5-0.2-0.5-0.5c0-0.1,0-0.2,0.1-0.2l1.4-3.1
			l0.9-2c0.1-0.3,0.3-0.4,0.7-0.4h0.1c0.3,0,0.5,0.2,0.6,0.4l0.9,2l1.4,3.1c0,0.1,0.1,0.2,0.1,0.2
			C569.9,377.2,569.7,377.5,569.4,377.5z M575.5,377.4h-4.2c-0.3,0-0.5-0.2-0.5-0.5v0c0-0.2,0.1-0.4,0.2-0.5l2.3-2.8l1.2-1.4h-3.1
			c-0.3,0-0.5-0.2-0.5-0.5s0.2-0.5,0.5-0.5h4.1c0.3,0,0.5,0.2,0.5,0.5v0c0,0.2-0.1,0.3-0.2,0.5l-1.2,1.4l-2.3,2.8h3.2
			c0.3,0,0.5,0.2,0.5,0.5S575.7,377.4,575.5,377.4z M578.4,373.6v3.3c0,0.3-0.2,0.5-0.5,0.5c-0.3,0-0.5-0.2-0.5-0.5v-3.3v-1.9
			c0-0.3,0.2-0.5,0.5-0.5c0.3,0,0.5,0.2,0.5,0.5V373.6z M585.4,373.6v3v0.2c0,0.3-0.2,0.5-0.5,0.5h0c-0.1,0-0.2,0-0.3-0.1
			c-0.1-0.1-0.2-0.1-0.3-0.3l-2.7-3.5h-0.5v3.3c0,0.3-0.2,0.5-0.5,0.5c-0.3,0-0.5-0.2-0.5-0.5v-3.3v-1.9c0-0.3,0.2-0.5,0.5-0.5h0.1
			c0.3,0,0.4,0.1,0.6,0.3l1.6,2.1l1.4,1.9v-1.9v-1.9c0-0.3,0.2-0.5,0.5-0.5c0.3,0,0.5,0.2,0.5,0.5V373.6z M592.5,376.2
			c0,0.3-0.1,0.5-0.4,0.7c-0.5,0.4-1.3,0.7-2.2,0.7c-0.5,0-0.9-0.1-1.2-0.2c-0.9-0.3-1.5-1-1.8-1.9c-0.1-0.3-0.2-0.7-0.2-1.1v0
			c0-0.2,0-0.5,0.1-0.7c0.3-1.4,1.5-2.5,3.1-2.5c0.7,0,1.2,0.1,1.7,0.4c0.1,0.1,0.3,0.2,0.4,0.3c0.1,0.1,0.2,0.2,0.2,0.4
			c0,0.3-0.2,0.5-0.5,0.5c-0.1,0-0.2-0.1-0.3-0.1c-0.2-0.1-0.4-0.3-0.7-0.4c-0.2-0.1-0.5-0.1-0.8-0.1c-1,0-1.8,0.7-2,1.7
			c0,0.1,0,0.3,0,0.5v0c0,0.1,0,0.2,0,0.3c0.1,0.8,0.5,1.4,1.1,1.7c0.3,0.1,0.6,0.2,1,0.2c0.6,0,1.1-0.2,1.5-0.5v-1.2h-1.2
			c-0.3,0-0.5-0.2-0.5-0.5s0.2-0.5,0.5-0.5h1.7c0.3,0,0.5,0.2,0.5,0.5V376.2z"/>
		<path fill="#4BE288" d="M518.2,372.2h-1.3v2.2h1.3c0.8,0,1.3-0.5,1.3-1.1v0C519.5,372.6,519,372.2,518.2,372.2z"/>
	</g>
	<g>
		<path fill="#4BE288" d="M590.1,389.3c-0.3-0.2-0.7-0.4-1.2-0.4c-1.2,0-2.1,1-2.1,2.2v0c0,0.3,0.1,0.6,0.2,0.9
			c0.3,0.7,1,1.3,1.9,1.3c1.2,0,2.1-1,2.1-2.2v0C591,390.4,590.7,389.7,590.1,389.3z"/>
		<path fill="#4BE288" d="M615.7,389c-1.2,0-2.1,1-2.1,2.2v0c0,1.2,0.9,2.2,2.1,2.2c1.2,0,2.1-1,2.1-2.2v0
			C617.8,390,616.9,389,615.7,389z"/>
		<path fill="#4BE288" d="M602.8,389.1h-1.3v2.2h1.3c0.8,0,1.3-0.5,1.3-1.1v0C604.1,389.4,603.6,389.1,602.8,389.1z"/>
		<path fill="#4BE288" d="M609,389.1h-1.6v2.1h1.6c0.8,0,1.3-0.4,1.3-1v0C610.3,389.4,609.8,389.1,609,389.1z"/>
		<path fill="#4BE288" d="M644.8,384h-48.7h-17.6c-1.1,0-2.2,0.4-3.1,1c-0.2,0.2-0.4,0.3-0.6,0.5l-0.1,0.1c0,0,0,0.1-0.1,0.1
			c-0.9,0.9-1.5,2.2-1.5,3.6v3.7c0,2.9,2.4,5.2,5.3,5.2h66.3c2.9,0,5.3-2.3,5.3-5.2v-3.7C650.1,386.4,647.8,384,644.8,384z
			 M579,388.6c0-0.3,0.2-0.5,0.5-0.5h0.1c0.3,0,0.4,0.1,0.6,0.3l3.1,4v-3.8c0-0.3,0.2-0.5,0.5-0.5c0.3,0,0.5,0.2,0.5,0.5v5.2
			c0,0.3-0.2,0.5-0.5,0.5h0c-0.3,0-0.4-0.1-0.6-0.3l-3.2-4.1v3.9c0,0.3-0.2,0.5-0.5,0.5c-0.3,0-0.5-0.2-0.5-0.5V388.6z M592.2,391.2
			c0,1.7-1.3,3.2-3.2,3.2c-1.2,0-2.2-0.6-2.7-1.5c-0.3-0.5-0.5-1.1-0.5-1.7v0c0-1.7,1.3-3.2,3.2-3.2c0.8,0,1.4,0.3,2,0.7
			C591.7,389.2,592.2,390.1,592.2,391.2L592.2,391.2z M598.9,393.7c0,0.3-0.2,0.5-0.5,0.5h0c-0.3,0-0.4-0.1-0.6-0.3l-3.2-4.1v3.9
			c0,0.3-0.2,0.5-0.5,0.5c-0.3,0-0.5-0.2-0.5-0.5v-5.2c0-0.3,0.2-0.5,0.5-0.5h0.1c0.3,0,0.4,0.1,0.6,0.3l3.1,4v-3.8
			c0-0.3,0.2-0.5,0.5-0.5c0.3,0,0.5,0.2,0.5,0.5V393.7z M605.2,390.1c0,1.4-1.1,2.1-2.5,2.1h-1.2v1.5c0,0.3-0.2,0.5-0.5,0.5
			c-0.3,0-0.5-0.2-0.5-0.5v-5.1c0-0.3,0.2-0.5,0.5-0.5h1.9C604.3,388.1,605.2,388.9,605.2,390.1L605.2,390.1z M611.4,390
			c0,1-0.6,1.6-1.4,1.8l1.2,1.5c0.1,0.1,0.2,0.2,0.2,0.4c0,0.3-0.3,0.5-0.5,0.5c-0.2,0-0.4-0.1-0.5-0.3l-1.5-1.9h-1.4v1.7
			c0,0.3-0.2,0.5-0.5,0.5c-0.3,0-0.5-0.2-0.5-0.5v-5.1c0-0.3,0.2-0.5,0.5-0.5h2.2c0.8,0,1.4,0.2,1.8,0.6
			C611.2,389,611.4,389.5,611.4,390L611.4,390z M618.9,391.2c0,1.7-1.3,3.2-3.2,3.2c-1.9,0-3.2-1.4-3.2-3.2v0c0-1.7,1.3-3.2,3.2-3.2
			S618.9,389.4,618.9,391.2L618.9,391.2z M624.4,389.1h-3.1v1.7h2.7c0.3,0,0.5,0.2,0.5,0.5s-0.2,0.5-0.5,0.5h-2.7v2
			c0,0.3-0.2,0.5-0.5,0.5c-0.3,0-0.5-0.2-0.5-0.5v-5.1c0-0.3,0.2-0.5,0.5-0.5h3.6c0.3,0,0.5,0.2,0.5,0.5S624.6,389.1,624.4,389.1z
			 M627.1,393.7c0,0.3-0.2,0.5-0.5,0.5c-0.3,0-0.5-0.2-0.5-0.5v-5.2c0-0.3,0.2-0.5,0.5-0.5c0.3,0,0.5,0.2,0.5,0.5V393.7z
			 M632.9,389.1h-1.5v4.7c0,0.3-0.2,0.5-0.5,0.5c-0.3,0-0.5-0.2-0.5-0.5v-4.7h-1.5c-0.3,0-0.5-0.2-0.5-0.5c0-0.3,0.2-0.5,0.5-0.5
			h4.1c0.3,0,0.5,0.2,0.5,0.5C633.4,388.8,633.2,389.1,632.9,389.1z M638.7,392.5c0,1.2-0.9,1.8-2.2,1.8c-0.8,0-1.6-0.3-2.3-0.8
			c-0.1-0.1-0.2-0.2-0.2-0.4c0-0.3,0.2-0.5,0.5-0.5c0.1,0,0.2,0,0.3,0.1c0.5,0.4,1.1,0.6,1.7,0.6s1.1-0.3,1.1-0.8v0
			c0-0.4-0.2-0.7-1.4-0.9c-1.3-0.3-2.1-0.7-2.1-1.8v0c0-1.1,0.9-1.8,2.1-1.8c0.8,0,1.4,0.2,2,0.6c0.1,0.1,0.2,0.2,0.2,0.4
			c0,0.3-0.2,0.5-0.5,0.5c-0.1,0-0.2,0-0.3-0.1c-0.5-0.3-0.9-0.5-1.4-0.5c-0.6,0-1,0.3-1,0.7v0c0,0.5,0.3,0.7,1.5,1
			C638.1,391,638.7,391.4,638.7,392.5L638.7,392.5z M641.2,393.7c0,0.3-0.3,0.6-0.6,0.6c-0.4,0-0.6-0.3-0.6-0.6v-0.1
			c0-0.3,0.3-0.6,0.6-0.6C640.9,393,641.2,393.2,641.2,393.7L641.2,393.7z M640.9,392c0,0.2-0.1,0.3-0.3,0.3c-0.2,0-0.3-0.1-0.3-0.3
			l-0.3-3.6c0-0.2,0.1-0.4,0.3-0.4h0.6c0.2,0,0.3,0.2,0.3,0.4L640.9,392z"/>
	</g>
</g>
</svg>
