<?xml version="1.0" encoding="utf-8"?>
<!-- Generator: Adobe Illustrator 17.1.0, SVG Export Plug-In . SVG Version: 6.00 Build 0)  -->
<!DOCTYPE svg PUBLIC "-//W3C//DTD SVG 1.1//EN" "http://www.w3.org/Graphics/SVG/1.1/DTD/svg11.dtd">
<svg version="1.1" id="Layer_1" xmlns="http://www.w3.org/2000/svg" xmlns:xlink="http://www.w3.org/1999/xlink" x="0px" y="0px"
   viewBox="0 0 150.4 154.6" enable-background="new 0 0 150.4 154.6" xml:space="preserve">
<g>
  <g>
    <g>
      <path fill="#50BC7E" d="M142.7,154H9c-0.9,0-1.6-0.7-1.6-1.6V66.5c0-0.9,0.7-1.6,1.6-1.6h133.7c0.9,0,1.6,0.7,1.6,1.6v85.9
        C144.3,153.3,143.6,154,142.7,154z"/>
    </g>
  </g>
  <g>
    <g>
      <path fill="#FDEC0E" d="M71.7,39.9l-1.1-0.2c-7.5-2.3-26.3-10-31.5-13.9c-4.5-3.4-6.1-8.7-4.3-14.3C37.1,5,43.4,0,49.6,0
        c2.9,0,7.1,1,10.8,5.9c4.2,5.5,12.6,21.7,15.3,28.4c0.5,1.2,0.3,2.5-0.4,3.6C74.5,39.1,73.1,39.9,71.7,39.9z M49.6,4.9
        c-4.1,0-8.5,3.6-10,8.2c-0.7,2-1.3,5.9,2.5,8.7c4,3,19.9,9.7,28.3,12.6c-3.3-7.5-10.5-21.1-13.9-25.5C54.5,6.3,52.1,4.9,49.6,4.9
        z"/>
    </g>
  </g>
  <g>
    <g>
      <path fill="#FDEC0E" d="M79.4,40.5c-1.4,0-2.7-0.8-3.5-2c-0.8-1.1-0.9-2.4-0.4-3.6c2.7-6.7,11.1-22.9,15.3-28.4
        c3.7-4.9,7.9-5.9,10.8-5.9c6.2,0,12.5,5,14.7,11.5c1.9,5.6,0.3,10.9-4.3,14.3c-5.1,3.8-24,11.6-31.5,13.9L79.4,40.5z M101.6,5.6
        c-2.6,0-4.9,1.3-6.9,4C91.3,14,84,27.6,80.8,35.1c8.3-2.8,24.2-9.6,28.3-12.6c3.8-2.8,3.2-6.7,2.5-8.8
        C110,9.2,105.6,5.6,101.6,5.6z"/>
    </g>
  </g>
  <g>
    <g>
      <path fill="#3A9B66" d="M148.7,65.5H1.4c-0.8,0-1.4-0.6-1.4-1.4V39.9c0-0.8,0.6-1.4,1.4-1.4h147.3c0.8,0,1.4,0.6,1.4,1.4v24.2
        C150.1,64.9,149.5,65.5,148.7,65.5z"/>
    </g>
  </g>
  <g>
    <g>
      <rect x="60.2" y="38.1" fill="#FDEC0E" width="4.9" height="116"/>
    </g>
  </g>
  <g>
    <g>
      <rect x="87.4" y="38.4" fill="#FDEC0E" width="4.9" height="115.7"/>
    </g>
  </g>
  <g>
    <g>
      <rect x="7.7" y="65.6" fill="#45AA6F" width="136.8" height="1.6"/>
    </g>
  </g>
  <g>
    <g>
      <rect x="60.2" y="65.6" fill="#E1CC21" width="5" height="1.6"/>
    </g>
  </g>
  <g>
    <g>
      <rect x="87.4" y="65.6" fill="#E1CC21" width="5" height="1.6"/>
    </g>
  </g>
</g>
</svg>
