<?xml version="1.0" encoding="utf-8"?>
<!-- Generator: Adobe Illustrator 17.1.0, SVG Export Plug-In . SVG Version: 6.00 Build 0)  -->
<!DOCTYPE svg PUBLIC "-//W3C//DTD SVG 1.1//EN" "http://www.w3.org/Graphics/SVG/1.1/DTD/svg11.dtd">
<svg version="1.1" id="Layer_1" xmlns="http://www.w3.org/2000/svg" xmlns:xlink="http://www.w3.org/1999/xlink" x="0px" y="0px"
	 viewBox="0 0 44.9 47.7" enable-background="new 0 0 44.9 47.7" xml:space="preserve">
<g id="Layer_1_1_">
	<g>
		<path d="M36.5,40c-0.4,0-0.8-0.1-1.1-0.4l-14.6-15c-0.3-0.4-0.3-0.8,0-1.2l14.7-15c0.4-0.4,1.3-0.5,1.9-0.2c0.6,0.3,0.7,1,0.3,1.4
			L23.5,24l14,14.4c0.4,0.4,0.3,1.1-0.3,1.4C37,40,36.8,40,36.5,40z"/>
	</g>
</g>
<g id="Layer_1_2_">
	<g>
		<path d="M7.3,8c0.4,0,0.8,0.1,1.1,0.4l14.6,15c0.3,0.4,0.3,0.8,0,1.2l-14.7,15c-0.4,0.4-1.3,0.5-1.9,0.2c-0.6-0.3-0.7-1-0.3-1.4
			L20.2,24L6.2,9.6C5.8,9.1,5.9,8.5,6.5,8.2C6.7,8,7,8,7.3,8z"/>
	</g>
</g>
</svg>
