<?xml version="1.0" encoding="utf-8"?>
<!-- Generator: Adobe Illustrator 17.1.0, SVG Export Plug-In . SVG Version: 6.00 Build 0)  -->
<!DOCTYPE svg PUBLIC "-//W3C//DTD SVG 1.1//EN" "http://www.w3.org/Graphics/SVG/1.1/DTD/svg11.dtd">
<svg version="1.1" id="Layer_1" xmlns="http://www.w3.org/2000/svg" xmlns:xlink="http://www.w3.org/1999/xlink" x="0px" y="0px"
	 viewBox="96 96 168 168" enable-background="new 96 96 168 168" xml:space="preserve">
<g>
	<path fill="#EFEFEF" d="M96,180c0,45.6,36.3,82.7,81.6,84V96.1C132.3,97.3,96,134.4,96,180z"/>
</g>
<g>
	<path fill="#D3D3D3" d="M180,96c-0.8,0-1.6,0-2.4,0v168c0.8,0,1.6,0,2.4,0c46.4,0,84-37.6,84-84S226.4,96,180,96z"/>
</g>
<g>
	<g>
		<path fill="#727272" d="M204.2,146.2c3,0,5.5,2.5,5.5,5.5v34.6c-0.1,3-2.5,5.5-5.5,5.5h-51.8c-3,0-5.5-2.5-5.5-5.5v-34.7
			c0-3,2.5-5.5,5.5-5.5H204.2 M204.2,142.6h-51.8c-5,0-9.1,4.1-9.1,9.1v34.7c0,5,4.1,9.1,9.1,9.1h51.8c5,0,9-4.1,9.1-9.1v-34.7
			C213.3,146.7,209.2,142.6,204.2,142.6L204.2,142.6z"/>
	</g>
</g>
<g>
	<path fill="#FFFFFF" d="M183.2,169.5l19.6,0c0.6,0,1.1,0.5,1.1,1.1v1.9c0,0.6-0.5,1.1-1.1,1.1l-14.1,0.1c-0.2,0,0.9,0.5,0.8,0.4
		l-3.4-2.9L183.2,169.5z"/>
	<path fill="#727272" d="M189.4,175.4c0,0-1.7-0.2-1.9-1.3l-2.2-1.8l-6.1-4l23.6,0c1.3,0,2.3,1.1,2.3,2.3v1.9c0,1.3-1.1,2.3-2.3,2.3
		l-12.4,0.1l-0.1,0.4L189.4,175.4z M187.1,170.7l2.3,1.9l13.4-0.1v-1.8H187.1z"/>
</g>
<g>
	<path fill="#FFFFFF" d="M191.7,182.1l11.2-0.2c0.6,0,1.1,0.5,1.1,1.1v2.1c0,0.6-0.4,1-1,1l-11.2,0.2V182.1z"/>
	<path fill="#727272" d="M190.5,187.5v-6.6l12.3-0.2c1.3,0,2.3,1,2.3,2.2v2.1c0,1.2-1,2.2-2.2,2.2L190.5,187.5z M192.9,183.3v1.8
		l9.8-0.2v-1.8L192.9,183.3z"/>
</g>
<g>
	<path fill="#FFFFFF" d="M187.7,141.9l16.3,20.1l-30.8,0.9l-11.7-10.5l18.8-11.8C182.6,139.1,185.9,139.7,187.7,141.9z"/>
	<path fill="#727272" d="M172.7,164.1l-13.2-11.9l20.1-12.7c1.1-0.6,2.3-1,3.6-1c2.1,0,4.1,1,5.5,2.6l17.8,22L172.7,164.1z
		 M163.4,152.6l10.2,9.1l27.9-0.8l-14.7-18.2c-0.9-1.1-2.2-1.7-3.6-1.7c-0.8,0-1.6,0.2-2.3,0.6L163.4,152.6z"/>
</g>
<g>
	<g>
		<path fill="#FFFFFF" d="M185,222.8c-0.9,0-1.8-0.3-2.6-0.8l-35.3-25.4c-1.2-0.8-1.9-2.2-1.9-3.6V149c0-2.8,2.4-4.5,4.6-4.5
			c1,0,1.9,0.4,2.8,1l36.3,28.8c1.1,0.9,1.7,2.2,1.7,3.6l-1,40.5C189.5,221.1,187.2,222.8,185,222.8z"/>
	</g>
	<g>
		<path fill="#545454" d="M149.7,146.2c0.6,0,1.1,0.2,1.6,0.6l0,0l0,0l36.3,28.8c0.8,0.7,1,1.6,1.1,2.2l-1,40.4
			c-0.1,1.7-1.5,2.7-2.7,2.7c-0.5,0-1.1-0.2-1.6-0.5L148.1,195l0,0l0,0c-0.7-0.5-1.1-1.3-1.1-2.1V149
			C147,147.3,148.4,146.2,149.7,146.2L149.7,146.2 M149.7,142.7c-3.3,0-6.3,2.6-6.4,6.3v43.9c0,2,1,3.9,2.7,5.1l35.3,25.4
			c1.2,0.8,2.4,1.2,3.7,1.2c3.2,0,6.2-2.5,6.3-6.2l1-40.5c0-2-0.8-3.8-2.4-5.1l-36.3-28.8C152.4,143.1,151.1,142.7,149.7,142.7
			L149.7,142.7z"/>
	</g>
</g>
<g>
	<g>
		<path fill="#545454" d="M180.1,147.7c0.4-0.3,0.8-0.5,1.3-0.8c0.5-0.2,1-0.3,1.5-0.3l-0.1,2c-0.3,0-0.5,0-0.8,0.1
			c-0.3,0.1-0.5,0.2-0.8,0.4l1.3,1.6l1.2-0.5c0.6-0.2,1.1-0.3,1.6-0.1c0.5,0.1,1,0.4,1.3,0.9c0.3,0.4,0.4,0.8,0.5,1.1
			c0.1,0.4,0.1,0.8,0,1.1c-0.1,0.4-0.2,0.7-0.4,1.1s-0.5,0.7-0.8,1l0.6,0.7l-0.7,0.5l-0.6-0.7c-0.4,0.4-1,0.6-1.5,0.9
			c-0.5,0.2-1.1,0.3-1.7,0.3l0.1-2.1c0.4,0.1,0.7,0.1,1,0c0.3-0.1,0.6-0.2,1-0.4l-1.3-1.8l-0.9,0.4c-0.7,0.2-1.2,0.3-1.7,0.2
			c-0.5-0.1-1-0.4-1.4-0.9c-0.2-0.3-0.4-0.7-0.5-1.1c-0.1-0.4-0.1-0.7,0-1.1c0.1-0.4,0.2-0.7,0.4-1.1c0.2-0.3,0.4-0.6,0.7-0.9
			l-0.6-0.7l0.7-0.5L180.1,147.7z M180.5,149.7c-0.2,0.2-0.3,0.4-0.4,0.6c-0.1,0.2,0,0.4,0.1,0.7c0.1,0.1,0.2,0.3,0.4,0.3
			c0.1,0,0.3,0.1,0.4,0.1s0.2,0,0.3-0.1c0.1,0,0.2-0.1,0.2-0.1L180.5,149.7z M184.8,153.9c0.1-0.1,0.2-0.2,0.2-0.3
			c0.1-0.1,0.2-0.2,0.2-0.4c0-0.1,0.1-0.2,0-0.4c0-0.1-0.1-0.2-0.1-0.4c-0.1-0.1-0.2-0.2-0.3-0.2c-0.1-0.1-0.2-0.1-0.3-0.1
			c-0.1,0-0.2,0-0.3,0c-0.1,0-0.2,0.1-0.3,0.1l-0.2,0.1L184.8,153.9z"/>
	</g>
</g>
</svg>
