<?xml version="1.0" encoding="utf-8"?>
<!-- Generator: Adobe Illustrator 17.1.0, SVG Export Plug-In . SVG Version: 6.00 Build 0)  -->
<!DOCTYPE svg PUBLIC "-//W3C//DTD SVG 1.1//EN" "http://www.w3.org/Graphics/SVG/1.1/DTD/svg11.dtd">
<svg version="1.1" id="Layer_1" xmlns="http://www.w3.org/2000/svg" xmlns:xlink="http://www.w3.org/1999/xlink" x="0px" y="0px"
	 viewBox="96 96 168 168" enable-background="new 96 96 168 168" xml:space="preserve">
<g>
	<path fill="#EFEFEF" d="M96,180c0,45.6,36.3,82.7,81.6,84V96.1C132.3,97.3,96,134.4,96,180z"/>
</g>
<g>
	<path fill="#D3D3D3" d="M180,96c-0.8,0-1.6,0-2.4,0v168c0.8,0,1.6,0,2.4,0c46.4,0,84-37.6,84-84S226.4,96,180,96z"/>
</g>
<g>
	<g>
		<path fill="#FFFFFF" d="M151.7,230c1.8-0.1,19.5-0.2,35.9,1.6c3.3,0.2,6.1-1.6,6.1-1.6c24.4-15.9,45.3-24.6,45.3-24.6
			c5-1.9,6.4-4.2,6.3-5.8c-0.2-3.1-1.9-4.2-1.9-4.2c-1.7-1.9-6.5-2.5-10.3-1.8c-1.6,0.2-23.3,6.8-28.6,8.4c-0.7,0.2-1,0.8-0.8,1.5
			c0.8,2.6,1.2,6.6-2.9,10.6c-3.2,2.8-8.2,3.8-14.6,3.7c-6.5-0.1-13.5-1.1-18.9-1.6c0,0,0,0-0.1,0c-1.5-0.2-1.5-2.3,0-2.5
			c0.5-0.1,1-0.1,1.5-0.1c5.8-0.2,10.3-0.2,13-0.1c2.9,0.2,7,0.5,8.7,0.5c7.9,0.2,9.7-4.8,9.8-6.8c0.1-5.7-3.2-7.6-13.1-8.3
			c-6.4-0.5-13.3-0.9-18.1-1.4c-9.3-1.1-16-3.7-19.4-4c-2.3-0.2-8.4-1.3-14.2,3.5c-9,7.5-21.7,13.6-31.9,17.7
			c4.2,9.3,10,17.6,17,24.8c0.7-0.3,1.3-0.7,2-1.1C132.2,231.4,142.7,230.4,151.7,230z"/>
	</g>
</g>
<g>
	<g>
		<path fill="#545454" d="M187.7,150.1c2.7,0,5.2,1.1,7.1,2.9l0,0l0,0c1.9,1.9,3,4.4,3,7c0,2.8-1.2,5.6-3.4,7.8
			c-4.5,4.5-10.5,10.6-14.5,14.6c-0.9,0.9-1.7,1.7-2.3,2.3c-0.7-0.7-1.6-1.6-2.5-2.5c-3.9-4-9.8-9.9-14.4-14.4
			c-2.2-2.2-3.4-4.9-3.4-7.7c0-2.6,1.1-5.2,3-7.1c1.9-1.9,4.4-2.9,7-2.9c2.7,0,5.3,1.1,7.2,3l3,3l3-3
			C182.5,151.2,185,150.1,187.7,150.1 M187.7,145.9c-3.7,0-7.4,1.4-10.1,4.3c-2.8-2.8-6.5-4.2-10.2-4.2c-3.6,0-7.3,1.4-10,4.1
			c-5.6,5.6-5.8,14.6,0.4,20.7c6.9,6.9,16.8,16.9,18.8,18.8l0.9,0.1l1,0.1c1.9-1.9,12-12.1,18.9-19c6.2-6.2,6.1-15.1,0.4-20.7
			C195,147.3,191.4,145.9,187.7,145.9L187.7,145.9z"/>
	</g>
</g>
<g>
	<path fill="#545454" d="M177.6,190.1c-0.8,0-1.3-0.6-1.3-1.3V186c0-0.8,0.6-1.3,1.3-1.3s1.4,0.6,1.4,1.3v2.8
		C178.9,189.5,178.3,190.1,177.6,190.1z"/>
</g>
</svg>
