<?xml version="1.0" encoding="utf-8"?>
<!-- Generator: Adobe Illustrator 17.1.0, SVG Export Plug-In . SVG Version: 6.00 Build 0)  -->
<!DOCTYPE svg PUBLIC "-//W3C//DTD SVG 1.1//EN" "http://www.w3.org/Graphics/SVG/1.1/DTD/svg11.dtd">
<svg version="1.1" id="Layer_1" xmlns="http://www.w3.org/2000/svg" xmlns:xlink="http://www.w3.org/1999/xlink" x="0px" y="0px"
	 viewBox="96 96 168 168" enable-background="new 96 96 168 168" xml:space="preserve">
<g>
	<path fill="#EFEFEF" d="M96,180c0,45.6,36.3,82.7,81.6,84V96C132.3,97.3,96,134.4,96,180z"/>
</g>
<g>
	<path fill="#D3D3D3" d="M180,96c-0.8,0-1.6,0-2.4,0v168c0.8,0,1.6,0,2.4,0c46.4,0,84-37.6,84-84S226.4,96,180,96z"/>
</g>
<g>
	<g>
		<path fill="#545454" d="M159.2,187.9h2.4c0.7,0,1.3-0.1,2-0.2c0.7-0.1,1.2-0.2,1.8-0.6c0.6-0.2,1-0.7,1.3-1.2
			c0.3-0.5,0.5-1.2,0.5-2c0-1.1-0.4-1.9-1.2-2.6c-0.8-0.7-1.8-1-3.1-1c-1.2,0-2.1,0.3-2.8,0.9c-0.8,0.6-1.2,1.4-1.5,2.3l-8.2-1.6
			c0.4-1.5,1-2.8,1.7-3.8c0.8-1.1,1.7-1.9,2.8-2.6c1.1-0.7,2.3-1.2,3.6-1.4c1.3-0.3,2.7-0.5,4.2-0.5c1.6,0,3,0.2,4.5,0.6
			c1.4,0.4,2.6,1,3.8,1.7c1.1,0.8,1.9,1.8,2.6,3c0.7,1.2,1,2.6,1,4.3c0,1.9-0.5,3.6-1.5,5c-1,1.4-2.5,2.2-4.4,2.6v0.2
			c1.1,0.2,2,0.4,2.7,0.9c0.8,0.5,1.5,1.1,2.1,1.8c0.6,0.8,1,1.6,1.2,2.5c0.3,0.9,0.4,1.9,0.4,2.9c0,1.7-0.3,3.2-1,4.6
			c-0.7,1.3-1.6,2.4-2.7,3.2c-1.2,0.8-2.5,1.5-4,1.9s-3.1,0.7-4.8,0.7c-3.1,0-5.8-0.8-8.1-2.2s-3.8-3.8-4.5-6.8l7.7-1.8
			c0.2,1.2,0.8,2.2,1.6,2.9c0.8,0.8,2,1.1,3.6,1.1c1.6,0,2.8-0.4,3.6-1.2c0.8-0.8,1.2-1.9,1.2-3.2c0-1-0.2-1.7-0.6-2.3
			c-0.4-0.6-0.9-0.9-1.6-1.2c-0.7-0.2-1.4-0.4-2.2-0.5c-0.8-0.1-1.6-0.1-2.5-0.1h-1.7L159.2,187.9L159.2,187.9L159.2,187.9z"/>
	</g>
	<g>
		<path fill="#545454" d="M179.2,191.6c0-2.1,0.2-4.2,0.6-6.3c0.4-2.2,1.1-4.1,2-5.8c1-1.7,2.3-3.2,4-4.2c1.6-1.1,3.8-1.6,6.4-1.6
			c2.5,0,4.7,0.6,6.4,1.6c1.7,1.1,3,2.5,4,4.2c1,1.7,1.6,3.7,2,5.8c0.4,2.2,0.6,4.2,0.6,6.3c0,2.1-0.2,4.2-0.6,6.3
			c-0.4,2.2-1.1,4.1-2,5.8c-1,1.7-2.3,3.1-4,4.2c-1.6,1.1-3.8,1.6-6.4,1.6c-2.6,0-4.7-0.6-6.4-1.6c-1.7-1.1-3-2.5-4-4.2
			c-1-1.7-1.6-3.7-2-5.8S179.2,193.7,179.2,191.6z M186.7,191.6c0,0.9,0,2,0.1,3.3c0.1,1.2,0.3,2.5,0.7,3.7s0.9,2.2,1.7,3
			s1.7,1.2,3.1,1.2c1.3,0,2.3-0.4,3.1-1.2c0.8-0.8,1.3-1.8,1.7-3c0.3-1.2,0.6-2.4,0.7-3.7c0.1-1.2,0.1-2.4,0.1-3.3
			c0-0.9,0-2-0.1-3.3c-0.1-1.2-0.3-2.5-0.7-3.7c-0.3-1.2-0.9-2.2-1.7-3c-0.8-0.8-1.7-1.2-3.1-1.2s-2.4,0.4-3.1,1.2
			c-0.8,0.8-1.2,1.8-1.7,3c-0.3,1.2-0.6,2.4-0.7,3.7C186.7,189.6,186.7,190.7,186.7,191.6z"/>
	</g>
</g>
<g>
	<g>
		<path fill="#545454" d="M132.4,151.3v-6.6c0-3.8,3-6.8,6.7-6.8h57.8l0,0h2.7h1.8h13.7c3.7,0,6.7,3,6.7,6.7v6.6l-44.2,0.1H132.4z"
			/>
	</g>
	<g>
		<path fill="#545454" d="M197.8,139.7L197.8,139.7h3.6h13.7c2.7,0,4.9,2.2,4.9,4.9v4.8l-42.4,0.1h-43.4v-4.8c0-2.8,2.2-5,4.9-5
			h13.7h6.3h18.5h17.5L197.8,139.7 M201.4,136.1h-6.3l0,0h-17.5h-18.5h-6.3h-13.7c-4.7,0-8.5,3.8-8.5,8.6v7.3v1.1h47l46-0.1v-1.1
			v-7.3c0-4.7-3.8-8.5-8.5-8.5H201.4L201.4,136.1L201.4,136.1z"/>
	</g>
</g>
<g>
	<g>
		<path fill="#FFFFFF" d="M220.2,160.8v59.7c0,2.8-2.2,5-4.9,5h-76.1c-2.7,0-4.9-2.2-4.9-5v-59.7H220.2 M223.8,157.2h-93.1v63.3
			c0,4.7,3.8,8.6,8.5,8.6h76.1c4.7,0,8.5-3.8,8.5-8.6V157.2L223.8,157.2z"/>
	</g>
</g>
<g>
	<circle fill="#FFFFFF" cx="155.9" cy="144.6" r="4.4"/>
	<path fill="#FFFFFF" d="M155.9,150.2c-3.1,0-5.6-2.5-5.6-5.6s2.5-5.6,5.6-5.6c3.1,0,5.6,2.5,5.6,5.6S158.9,150.2,155.9,150.2z
		 M155.9,141.4c-1.7,0-3.2,1.4-3.2,3.2c0,1.7,1.4,3.1,3.2,3.1c1.7,0,3.1-1.4,3.1-3.1C159,142.9,157.6,141.4,155.9,141.4z"/>
</g>
<g>
	<path fill="#545454" d="M155.7,146.7c-1.5,0-2.7-1.2-2.7-2.7v-20.1c0-1.5,1.2-2.7,2.7-2.7s2.7,1.2,2.7,2.7V144
		C158.4,145.5,157.2,146.7,155.7,146.7z"/>
</g>
<g>
	<circle fill="#FFFFFF" cx="196.4" cy="143.7" r="4.4"/>
	<path fill="#FFFFFF" d="M196.4,149.2c-3.1,0-5.6-2.5-5.6-5.6s2.5-5.5,5.6-5.5c3.1,0,5.6,2.5,5.6,5.5S199.4,149.2,196.4,149.2z
		 M196.4,140.6c-1.7,0-3.2,1.4-3.2,3.1c0,1.7,1.4,3.2,3.2,3.2c1.7,0,3.1-1.4,3.1-3.2C199.5,142,198.1,140.6,196.4,140.6z"/>
</g>
<g>
	<path fill="#545454" d="M196.2,146.7c-1.5,0-2.7-1.2-2.7-2.7v-20.1c0-1.5,1.2-2.7,2.7-2.7s2.7,1.2,2.7,2.7V144
		C198.9,145.5,197.7,146.7,196.2,146.7z"/>
</g>
</svg>
